<svg width="53" height="53" viewBox="0 0 53 53" fill="none" xmlns="http://www.w3.org/2000/svg">
<mask id="mask0_48_170" style="mask-type:luminance" maskUnits="userSpaceOnUse" x="23" y="12" width="6" height="29">
<path d="M28.5786 37.9546V14.5474C28.5786 13.2772 27.5504 12.2188 26.25 12.2188C24.9496 12.2188 23.9214 13.247 23.9214 14.5474V37.9244C23.9214 39.1946 24.9496 40.253 26.25 40.253C27.5504 40.253 28.5786 39.2248 28.5786 37.9244" fill="white"/>
</mask>
<g mask="url(#mask0_48_170)">
<path d="M28.5786 12.2188H23.9214V40.253H28.5786V12.2188Z" fill="url(#paint0_linear_48_170)"/>
</g>
<mask id="mask1_48_170" style="mask-type:luminance" maskUnits="userSpaceOnUse" x="16" y="27" width="21" height="14">
<path d="M36.3803 30.1523C36.3803 29.5475 36.1383 28.9729 35.6847 28.489C34.7775 27.5818 33.2956 27.5818 32.3883 28.489L26.2492 34.6584L20.1101 28.489C19.2029 27.5818 17.721 27.5818 16.8137 28.489C15.9065 29.3963 15.9065 30.8782 16.8137 31.7854L24.6162 39.5878C25.5234 40.4951 27.0053 40.4951 27.9125 39.5878L35.715 31.7854C36.1686 31.3318 36.4105 30.7269 36.4105 30.1523" fill="white"/>
</mask>
<g mask="url(#mask1_48_170)">
<path d="M36.3803 27.5781H15.9065V40.4914H36.3803V27.5781Z" fill="url(#paint1_linear_48_170)"/>
</g>
<mask id="mask2_48_170" style="mask-type:luminance" maskUnits="userSpaceOnUse" x="0" y="0" width="53" height="53">
<path d="M52.5 26.25C52.5 11.7641 40.7056 0 26.25 0C11.7944 0 0 11.7641 0 26.25C0 40.7359 11.7641 52.5 26.25 52.5C40.7359 52.5 52.5 40.7359 52.5 26.25ZM4.65726 26.25C4.65726 14.3347 14.3347 4.65726 26.25 4.65726C38.1653 4.65726 47.8427 14.3347 47.8427 26.25C47.8427 38.1653 38.1653 47.8427 26.25 47.8427C14.3347 47.8427 4.65726 38.1653 4.65726 26.25Z" fill="white"/>
</mask>
<g mask="url(#mask2_48_170)">
<path d="M52.5 0H0V52.5H52.5V0Z" fill="#FF5801"/>
</g>
<defs>
<linearGradient id="paint0_linear_48_170" x1="26.25" y1="12.2188" x2="26.25" y2="40.2833" gradientUnits="userSpaceOnUse">
<stop stop-color="#EF2B3B"/>
<stop offset="0.11" stop-color="#F13133"/>
<stop offset="0.69" stop-color="#FB4D0E"/>
<stop offset="1" stop-color="#FF5801"/>
</linearGradient>
<linearGradient id="paint1_linear_48_170" x1="26.1283" y1="27.8201" x2="26.1283" y2="40.2797" gradientUnits="userSpaceOnUse">
<stop stop-color="#EF2B3B"/>
<stop offset="0.11" stop-color="#F13133"/>
<stop offset="0.69" stop-color="#FB4D0E"/>
<stop offset="1" stop-color="#FF5801"/>
</linearGradient>
</defs>
</svg>
