<svg width="248" height="57" viewBox="0 0 248 57" fill="none" xmlns="http://www.w3.org/2000/svg">
<g clip-path="url(#clip0_48_101)">
<path d="M14.5049 23.6901C15.5556 23.5883 16.6362 23.4505 17.7289 23.2948C26.1461 22.0788 35.878 19.2037 46.9488 14.6693C46.9968 14.6453 47.0509 14.6214 47.0989 14.6154C47.8854 14.2979 48.6719 13.9685 49.4764 13.627C49.9987 13.3994 50.533 13.1718 51.0733 12.9442C53.6549 11.8241 56.3085 10.6201 59.0282 9.33228C59.3524 9.17654 59.1483 8.69136 58.8121 8.81116C55.9783 9.82944 53.2167 10.7639 50.539 11.6264C49.7765 11.878 49.0141 12.1176 48.2636 12.3392C47.6392 12.5309 47.0209 12.7226 46.4085 12.9083C46.1143 12.9981 45.8261 13.076 45.5319 13.1718C34.8034 16.3285 25.3896 18.1375 17.3026 18.6047C17.3387 18.1614 17.3807 17.7182 17.4407 17.2869V17.2989C18.5454 9.99117 24.8193 4.36066 32.4019 4.30076H32.528C37.451 4.30076 41.8397 6.5889 44.6614 10.1469C45.3999 11.0813 46.6246 11.5006 47.7653 11.1472C47.8013 11.1352 47.8434 11.1233 47.8794 11.1113C48.5758 10.8956 49.2662 10.68 49.9627 10.4524C46.6546 4.23487 40.0686 0 32.51 0H32.3599C22.3637 0.065889 14.1507 7.69105 13.07 17.4187C13.022 17.8499 12.992 18.2812 12.968 18.7245C12.956 19.0659 12.944 19.4193 12.944 19.7607C12.968 21.1264 13.1241 22.4741 13.4363 23.7799C13.7905 23.744 14.1507 23.726 14.5049 23.6901Z" fill="#5E17EB"/>
<path d="M21.7814 30.3207C30.1266 27.0921 39.6244 22.7195 47.8794 18.5745C49.2783 17.8677 50.6471 17.1668 51.9679 16.484L51.992 16.508C55.9544 14.4474 59.4845 12.5067 62.2643 10.8655C62.5764 10.6798 62.3183 10.2126 61.9941 10.3743C58.7101 12.0275 55.282 13.6028 51.7098 15.1003C51.6437 15.1363 51.5717 15.1542 51.5057 15.1902C50.6952 15.5316 49.8907 15.861 49.0562 16.1905C48.6599 16.3522 48.1916 16.5319 47.6573 16.7356C41.8637 18.9399 28.4575 23.4982 18.5635 25.6426C17.0265 25.972 15.5796 26.2535 14.2468 26.4512C8.09905 27.3856 4.67095 26.6668 8.08704 22.5518L8.25515 22.3481C8.16509 22.3721 8.07504 22.402 7.97898 22.438C3.63832 23.9354 2.32951 30.5483 10.5846 29.4042C12.1335 29.1766 13.6825 28.9071 15.2194 28.5956C16.6903 28.3021 18.1552 27.9846 19.6141 27.6192C26.4943 25.9361 33.2545 23.588 39.7264 20.9525C38.1895 21.6473 29.214 25.7264 20.4006 28.7573C18.9537 29.2545 17.5188 29.7217 16.132 30.141C7.86491 32.6388 0.924652 33.5073 2.16741 28.7633C2.21544 28.5896 1.9813 28.4878 1.87924 28.6375C-3.5661 36.67 3.43419 36.5382 14.6611 32.8784C15.5616 32.5849 16.4922 32.2674 17.4408 31.938C18.4794 31.5726 19.5481 31.1772 20.6287 30.7699C21.007 30.6202 21.3912 30.4764 21.7814 30.3267V30.3207Z" fill="#5E17EB"/>
<path d="M52.1901 18.1077C51.8239 18.2994 51.4636 18.503 51.0974 18.7007C50.0167 19.2817 48.9541 19.8508 47.9095 20.3958C37.8893 25.655 29.5202 29.3687 22.8021 31.5191C21.7874 31.8366 20.8088 32.1301 19.8783 32.3817C19.3079 32.5434 18.7496 32.6752 18.2032 32.8009C18.2933 32.9028 18.3834 32.9926 18.4794 33.0825C19.5841 34.2206 20.4846 35.5563 21.133 36.9999C21.3132 37.3952 21.4753 37.8085 21.6253 38.2158C21.8895 38.9885 22.0936 39.7852 22.2197 40.5878C22.5859 43.0617 24.6992 44.8467 27.2208 44.8467H38.0154C40.4889 44.8467 42.6262 43.0197 43.0165 40.5878C43.4487 37.7247 44.7575 35.137 46.7387 33.0885C50.0288 29.7281 51.986 25.1578 52.2141 20.4438C52.1601 20.4917 52.088 20.5216 52.034 20.5695L52.046 20.5576C51.1755 21.1685 50.2929 21.7795 49.4104 22.3845C48.1436 23.253 47.189 24.475 46.5466 25.8646C45.8322 27.422 44.8596 28.8536 43.6649 30.0755C41.0352 32.777 39.3362 36.1972 38.7538 39.917C38.7058 40.2224 38.3996 40.5399 38.0034 40.5399H27.2208C26.8906 40.5399 26.5243 40.3602 26.4703 39.9289C26.2902 38.7609 25.99 37.5989 25.5818 36.4847C25.4317 36.0774 25.2636 35.6641 25.0895 35.2688C31.2973 32.4416 38.8559 27.9851 47.7534 21.9293C48.9121 21.1446 50.0888 20.33 51.2955 19.4854C51.6017 19.2697 51.9199 19.0421 52.2381 18.8265C52.7965 18.4431 53.3548 18.0418 53.9251 17.6345C54.9037 16.9397 55.8943 16.2269 56.897 15.4961C55.7803 16.119 54.6876 16.736 53.619 17.323C53.1507 17.5866 52.6764 17.8322 52.2081 18.0957L52.1901 18.1077Z" fill="white"/>
<path d="M37.7693 52.6934H27.4189C26.6805 52.6934 26.0741 53.3522 26.0741 54.1489V55.5446C26.0741 56.3412 26.6805 57.0001 27.4189 57.0001H37.7693C38.5077 57.0001 39.1141 56.3412 39.1141 55.5446V54.1489C39.1141 53.3522 38.5077 52.6934 37.7693 52.6934Z" fill="white"/>
<path d="M39.5043 46.5479H25.6898C24.9513 46.5479 24.345 47.2067 24.345 48.0034V49.3991C24.345 50.1957 24.9513 50.8546 25.6898 50.8546H39.5043C40.2427 50.8546 40.8491 50.1957 40.8491 49.3991V48.0034C40.8491 47.2067 40.2427 46.5479 39.5043 46.5479Z" fill="white"/>
<path d="M88.7285 28.3264H74.3557V25.2057H86.6572V21.5998H74.3557V18.5569H88.3742V15.0049H72.7226C71.3058 15.0049 70.1531 16.1549 70.1531 17.5686V32.2618H88.7285V28.3264Z" fill="white"/>
<path d="M94.3181 20.3777L105.977 32.2617H110.33V15.0107H105.923V26.4874L94.3661 15.0107H89.9114V32.2617H94.3181V20.3777Z" fill="white"/>
<path d="M133.09 30.8838V22.9053H124.889V26.4094H128.887V28.0207C127.993 28.8413 125.531 29.1168 123.352 29.1168C119.305 29.1168 116.97 26.9964 116.97 23.6181C116.97 20.2398 119.431 18.1193 123.298 18.1193C126.144 18.1193 128.677 18.8082 131.319 20.4434L133.294 16.8135C131.961 15.8192 127.837 14.4355 123.304 14.4355C117.564 14.4355 112.695 17.7839 112.695 23.6121C112.695 29.4403 117.258 32.8126 123.046 32.8126C128.449 32.8126 131.679 31.7644 133.09 30.8719V30.8838Z" fill="white"/>
<path d="M154.229 28.3263H139.856V25.2056H152.157V21.6056H139.856V18.5628H153.868V15.0107H135.653V32.2617H154.229V28.3263Z" fill="white"/>
<path d="M175.32 20.3479C175.32 17.0474 173.194 15.0049 168.914 15.0049H155.411V32.2618H159.59V25.6669H168.74C173.146 25.6669 175.326 23.6483 175.326 20.3479H175.32ZM159.59 18.7426H168.89C170.12 18.7426 170.913 19.2517 170.913 20.2281C170.913 21.3003 170.12 21.8394 168.89 21.8394H159.59V18.7486V18.7426Z" fill="white"/>
<path d="M180.627 25.6668H185.754L190.443 32.2617H196.26L191.061 25.6428C194.621 25.2595 196.363 23.3187 196.363 20.3537C196.363 17.0533 194.237 15.0107 189.957 15.0107H176.454V32.2677H180.633V25.6728L180.627 25.6668ZM180.627 18.7425H189.927C191.157 18.7425 191.95 19.2516 191.95 20.228C191.95 21.3001 191.157 21.8392 189.927 21.8392H180.627V18.7484V18.7425Z" fill="white"/>
<path d="M202.822 15.0107H198.62V32.2677H202.822V15.0107Z" fill="white"/>
<path d="M215.736 15.0107H205.95V32.2677H216.331C224.4 32.2677 227.089 27.4877 227.089 23.6242C227.089 16.7478 221.992 15.0107 215.736 15.0107ZM215.784 28.2724H210.147V18.4789H215.73C220.419 18.4789 222.725 20.2938 222.725 23.4625C222.725 26.6312 220.443 28.2664 215.778 28.2664L215.784 28.2724Z" fill="white"/>
<path d="M233.621 28.3263V25.2056H245.923V21.6056H233.621V18.5628H247.64V15.0107H229.425V32.2617H248V28.3263H233.621Z" fill="white"/>
<path d="M77.0515 35.8672C73.059 35.8672 70.0452 37.7241 70.0452 41.4318C70.0452 45.1396 73.059 46.9785 77.0875 46.9785C80.2394 46.9785 82.9771 45.457 83.4634 43.5223H81.7223C81.2901 44.8521 79.4349 45.7865 77.0455 45.7865C74.1277 45.7865 71.8403 44.4807 71.6241 41.8451H83.4634V41.3959C83.4634 38.9161 81.194 35.8732 77.0455 35.8732L77.0515 35.8672ZM81.7523 40.7849H71.6722C71.9483 38.2092 74.1757 37.0772 77.0334 37.0772C79.8912 37.0772 81.7523 39.1077 81.7523 40.707V40.7849Z" fill="white"/>
<path d="M91.6704 35.8672C89.6531 35.8672 88.1102 36.4901 86.9575 37.3527V36.1008H85.3545V46.7389H87.0535V38.6765C88.2663 37.742 89.6171 37.191 91.4002 37.191C94.1199 37.191 96.6234 38.0894 96.6234 42.2464V46.7389H98.3224V42.2105C98.3224 36.8975 94.8763 35.8672 91.6704 35.8672Z" fill="white"/>
<path d="M112.053 37.3527C111.405 36.8256 109.976 35.9092 107.046 35.9092C103.624 35.9092 100.1 37.3527 100.1 41.0605C100.1 44.7683 103.66 46.2118 106.518 46.2118C109.141 46.2118 111.272 45.4691 112.113 44.6305C112.113 47.2481 109.748 48.5359 106.674 48.5359C104.206 48.5359 102.429 48.1286 101.036 47.5236L100.508 48.7515C102.057 49.3985 103.756 49.7099 106.77 49.7099C111.194 49.7099 113.68 48.1286 113.68 44.0315V36.1068H112.053V37.3587V37.3527ZM107.202 44.942C104.602 44.942 101.721 43.8877 101.721 41.0186C101.721 38.1494 104.536 37.0772 107.436 37.0772C109.513 37.0772 111.525 38.0715 112.053 39.1677L112.113 43.133C111.411 44.1872 109.531 44.948 107.202 44.948V44.942Z" fill="white"/>
<path d="M122.559 35.8672C118.567 35.8672 115.553 37.7241 115.553 41.4318C115.553 45.1396 118.567 46.9785 122.595 46.9785C125.747 46.9785 128.485 45.457 128.971 43.5223H127.23C126.798 44.8521 124.943 45.7865 122.553 45.7865C119.635 45.7865 117.348 44.4807 117.132 41.8451H128.971V41.3959C128.971 38.9161 126.702 35.8732 122.553 35.8732L122.559 35.8672ZM127.254 40.7849H117.174C117.45 38.2092 119.678 37.0772 122.535 37.0772C125.393 37.0772 127.248 39.1077 127.248 40.707V40.7849H127.254Z" fill="white"/>
<path d="M137.172 35.8672C135.155 35.8672 133.612 36.4901 132.459 37.3527V36.1008H130.856V46.7389H132.561V38.6765C133.774 37.742 135.125 37.191 136.908 37.191C139.628 37.191 142.131 38.0894 142.131 42.2464V46.7389H143.836V42.2105C143.836 36.8975 140.39 35.8672 137.184 35.8672H137.172Z" fill="white"/>
<path d="M152.332 35.8671C150.314 35.8671 148.832 36.4901 147.673 37.3526V33.1357H146.028V46.7448H147.727V38.6824C148.94 37.7659 150.29 37.1969 152.05 37.1969C154.769 37.1969 157.255 38.0954 157.255 42.2524V46.7448H158.96V42.2164C158.96 36.9034 155.538 35.8731 152.326 35.8731L152.332 35.8671Z" fill="white"/>
<path d="M174.791 45.6068C174.203 45.6068 173.831 45.1995 173.831 44.7083V40.8628C173.831 37.4845 171.658 35.8672 166.867 35.8672C164.633 35.8672 162.346 36.2386 161.151 37.0412L161.619 38.1733C162.736 37.5504 164.849 37.161 166.746 37.161C170.739 37.161 172.246 38.5087 172.282 40.6352C171.441 40.2278 169.19 39.5989 167.173 39.5989C164.045 39.5989 160.737 40.2818 160.737 43.2288C160.737 45.6906 162.556 46.9785 166.218 46.9785C168.878 46.9785 171.363 46.2777 172.384 45.6906C172.618 46.4334 173.321 46.9785 174.299 46.9785C174.785 46.9785 175.338 46.7808 175.668 46.4514L175.608 45.3013C175.374 45.499 175.062 45.6128 174.785 45.6128L174.791 45.6068ZM172.246 44.7083C171.387 45.1575 168.704 45.7625 166.512 45.7625C163.775 45.7625 162.304 44.9599 162.304 43.2468C162.304 41.4318 164.339 40.7669 167.257 40.7669C169.232 40.7669 171.579 41.294 172.246 41.7852V44.7143V44.7083Z" fill="white"/>
<path d="M178.508 37.8979V36.1009H176.923V46.739H178.622V39.8087C179.21 37.7781 181.714 37.4487 184.415 37.4247V35.8613C181.479 35.8613 179.504 36.2507 178.508 37.8919V37.8979Z" fill="white"/>
<path d="M187.405 36.1006H185.724V46.7387H187.405V36.1006Z" fill="white"/>
<path d="M186.546 33.2676C186 33.2676 185.568 33.639 185.568 34.0882C185.568 34.5374 186 34.9088 186.546 34.9088C187.093 34.9088 187.561 34.5554 187.561 34.0882C187.561 33.621 187.111 33.2676 186.546 33.2676Z" fill="white"/>
<path d="M203.645 45.6068C203.057 45.6068 202.685 45.1995 202.685 44.7083V40.8628C202.685 37.4845 200.511 35.8672 195.72 35.8672C193.487 35.8672 191.2 36.2386 190.005 37.0412L190.473 38.1733C191.59 37.5504 193.703 37.161 195.6 37.161C199.593 37.161 201.1 38.5087 201.136 40.6352C200.295 40.2278 198.044 39.5989 196.027 39.5989C192.899 39.5989 189.591 40.2818 189.591 43.2288C189.591 45.6906 191.41 46.9785 195.072 46.9785C197.732 46.9785 200.217 46.2777 201.238 45.6906C201.472 46.4334 202.174 46.9785 203.153 46.9785C203.639 46.9785 204.192 46.7808 204.522 46.4514L204.462 45.3013C204.228 45.499 203.915 45.6128 203.639 45.6128L203.645 45.6068ZM201.106 44.7083C200.247 45.1575 197.563 45.7625 195.372 45.7625C192.634 45.7625 191.164 44.9599 191.164 43.2468C191.164 41.4318 193.199 40.7669 196.117 40.7669C198.092 40.7669 200.439 41.294 201.106 41.7852V44.7143V44.7083Z" fill="white"/>
</g>
<defs>
<clipPath id="clip0_48_101">
<rect width="248" height="57" fill="white"/>
</clipPath>
</defs>
</svg>
