<svg width="266" height="49" viewBox="0 0 266 49" fill="none" xmlns="http://www.w3.org/2000/svg">
<path fill-rule="evenodd" clip-rule="evenodd" d="M13.3344 47.6487H29.9164C37.2904 47.6487 43.2508 41.6502 43.2508 34.3144V19.7191C43.2508 12.3451 37.2522 6.38477 29.9164 6.38477H13.3344C5.96036 6.38477 0 12.3833 0 19.7191V34.3144C0 41.6884 5.99857 47.6487 13.3344 47.6487ZM29.9164 9.28857C35.6475 9.28857 40.3088 13.9499 40.3088 19.681V34.2761C40.3088 40.0073 35.6475 44.6686 29.9164 44.6686H13.3344C7.60328 44.6686 2.94197 40.0073 2.94197 34.2761V19.681C2.94197 13.9499 7.60328 9.28857 13.3344 9.28857H29.9164Z" fill="white"/>
<path fill-rule="evenodd" clip-rule="evenodd" d="M21.6248 38.8676C28.1582 38.8676 33.5073 33.5568 33.5073 26.9851C33.5073 20.4134 28.1965 15.1025 21.6248 15.1025C15.0531 15.1025 9.74227 20.4516 9.74227 26.9851C9.74227 33.5186 15.0531 38.8676 21.6248 38.8676ZM21.6248 18.0827C26.5535 18.0827 30.5271 22.0946 30.5271 26.9851C30.5271 31.8757 26.5153 35.8874 21.6248 35.8874C16.7342 35.8874 12.7225 31.8757 12.7225 26.9851C12.7225 22.0946 16.7342 18.0827 21.6248 18.0827Z" fill="white"/>
<path fill-rule="evenodd" clip-rule="evenodd" d="M7.48814 15.4796C7.48814 16.855 8.59616 17.9248 9.97163 17.9248C11.3471 17.9248 12.4551 16.8168 12.4551 15.4796C12.4551 14.1423 11.3471 12.9961 9.97163 12.9961C8.59616 12.9961 7.48814 14.1041 7.48814 15.4796Z" fill="white"/>
<path d="M153.861 19.7939L166.317 26.9769L153.861 34.1598V19.7556V19.7939ZM182.975 35.7263C182.975 41.1135 178.581 45.5074 173.194 45.5074H143.277C137.89 45.5074 133.496 41.1135 133.496 35.7263V18.2656C133.496 12.8783 137.89 8.48438 143.277 8.48438H173.194C178.581 8.48438 182.975 12.8783 182.975 18.2656V35.7263Z" fill="white"/>
<path fill-rule="evenodd" clip-rule="evenodd" d="M153.861 19.7891L166.317 26.9721L153.861 34.1932V19.7891Z" fill="#000001"/>
<path d="M91.0486 48.7278V28.9364H97.6967L98.6901 21.2185H91.0486V16.2897C91.0486 14.0737 91.6599 12.5455 94.8694 12.5455H98.9576V5.62983C98.2316 5.55341 95.8246 5.32422 92.9972 5.32422C87.1133 5.32422 83.0633 8.91577 83.0633 15.5257V21.2185H76.4152V28.9364H83.0633V48.7278H91.0486Z" fill="white"/>
<path d="M227.831 13.9863H217.859V45.5075H227.831V13.9863Z" fill="white"/>
<path d="M234.899 13.0695H245.559L244.91 17.3106H245.024C247.278 14.8653 249.494 13.0695 253.315 13.0695C258.626 13.0695 266 15.9732 266 24.7227V45.4694H256.028V27.6648C256.028 24.5317 254.041 21.5133 250.832 21.5133C247.851 21.5133 244.91 24.5317 244.91 27.6648V45.4694H234.937V13.0312L234.899 13.0695Z" fill="white"/>
<path d="M228.214 6.19581C228.214 9.17599 225.807 11.5448 222.865 11.5448C219.923 11.5448 217.516 9.13778 217.516 6.19581C217.516 3.25384 219.923 0.84668 222.865 0.84668C225.807 0.84668 228.214 3.25384 228.214 6.19581Z" fill="white"/>
</svg>
