<svg width="21" height="20" viewBox="0 0 21 20" fill="none" xmlns="http://www.w3.org/2000/svg">
<path d="M15.1717 11.9256L15.164 11.9881C13.2946 11.0748 13.0991 10.9531 12.8577 11.3081C12.6902 11.554 12.2022 12.1114 12.0552 12.2764C11.9064 12.4389 11.7585 12.4514 11.506 12.3389C11.2509 12.2139 10.4323 11.9514 9.46316 11.1015C8.70826 10.439 8.2016 9.62649 8.05198 9.37649C7.80289 8.95483 8.32401 8.89484 8.79837 8.01485C8.88339 7.83985 8.84003 7.70236 8.77712 7.57819C8.71336 7.45319 8.20585 6.22822 7.99332 5.73989C7.78929 5.25323 7.57931 5.3149 7.42204 5.3149C6.93238 5.27323 6.57448 5.2799 6.25909 5.60156C4.88701 7.07987 5.23301 8.60484 6.40701 10.2265C8.71421 13.1864 9.94348 13.7314 12.1912 14.4881C12.7982 14.6772 13.3516 14.6506 13.7894 14.5889C14.2773 14.5131 15.2915 13.9881 15.5032 13.4006C15.72 12.8131 15.72 12.3256 15.6562 12.2131C15.5933 12.1006 15.4267 12.0381 15.1717 11.9256Z" fill="white"/>
<path d="M17.7329 2.87448C11.1964 -3.31958 0.378686 1.17284 0.374436 9.91101C0.374436 11.6576 0.841147 13.361 1.73036 14.8651L0.288574 20L5.67403 18.6234C12.3942 22.1816 20.6879 17.4567 20.6913 9.91601C20.6913 7.2694 19.6371 4.77861 17.7201 2.90697L17.7329 2.87448ZM18.9927 9.88852C18.9876 16.2492 11.8645 20.2217 6.23086 16.9751L5.92482 16.7967L2.7369 17.6092L3.59126 14.5718L3.38808 14.2593C-0.117779 8.78854 3.91005 1.63866 10.5511 1.63866C11.6602 1.63593 12.7587 1.84885 13.7832 2.26509C14.8078 2.68134 15.7379 3.29264 16.5198 4.06362C17.3059 4.82492 17.9295 5.7321 18.3541 6.73219C18.7787 7.73229 18.9958 8.80527 18.9927 9.88852Z" fill="white"/>
</svg>
