<svg width="23" height="23" viewBox="0 0 23 23" fill="none" xmlns="http://www.w3.org/2000/svg">
<path d="M6.90618 10.8437C6.54374 10.8437 6.24993 11.1376 6.24993 11.5C6.24993 11.8624 6.54374 12.1562 6.90618 12.1562H14.5094L11.6921 14.9735C11.4359 15.2297 11.4359 15.6453 11.6921 15.9015C11.9484 16.1578 12.3639 16.1578 12.6202 15.9015L16.5577 11.964C16.814 11.7078 16.814 11.2922 16.5577 11.036L12.6202 7.09846C12.3639 6.84218 11.9484 6.84218 11.6921 7.09846C11.4359 7.35474 11.4359 7.77026 11.6921 8.02654L14.5094 10.8437H6.90618Z" fill="white"/>
<path fill-rule="evenodd" clip-rule="evenodd" d="M22 11.5C22 17.299 17.299 22 11.5 22C5.70101 22 1 17.299 1 11.5C1 5.70101 5.70101 1 11.5 1C17.299 1 22 5.70101 22 11.5ZM2.3125 11.5C2.3125 16.5741 6.42588 20.6875 11.5 20.6875C16.5741 20.6875 20.6875 16.5741 20.6875 11.5C20.6875 6.42588 16.5741 2.3125 11.5 2.3125C6.42588 2.3125 2.3125 6.42588 2.3125 11.5Z" fill="white"/>
<path d="M6.90618 10.8437C6.54374 10.8437 6.24993 11.1376 6.24993 11.5C6.24993 11.8624 6.54374 12.1562 6.90618 12.1562H14.5094L11.6921 14.9735C11.4359 15.2297 11.4359 15.6453 11.6921 15.9015C11.9484 16.1578 12.3639 16.1578 12.6202 15.9015L16.5577 11.964C16.814 11.7078 16.814 11.2922 16.5577 11.036L12.6202 7.09846C12.3639 6.84218 11.9484 6.84218 11.6921 7.09846C11.4359 7.35474 11.4359 7.77026 11.6921 8.02654L14.5094 10.8437H6.90618Z" stroke="white" stroke-linecap="round" stroke-linejoin="round"/>
<path fill-rule="evenodd" clip-rule="evenodd" d="M22 11.5C22 17.299 17.299 22 11.5 22C5.70101 22 1 17.299 1 11.5C1 5.70101 5.70101 1 11.5 1C17.299 1 22 5.70101 22 11.5ZM2.3125 11.5C2.3125 16.5741 6.42588 20.6875 11.5 20.6875C16.5741 20.6875 20.6875 16.5741 20.6875 11.5C20.6875 6.42588 16.5741 2.3125 11.5 2.3125C6.42588 2.3125 2.3125 6.42588 2.3125 11.5Z" stroke="white" stroke-linecap="round" stroke-linejoin="round"/>
</svg>
