<svg width="374" height="86" viewBox="0 0 374 86" fill="none" xmlns="http://www.w3.org/2000/svg">
<g clip-path="url(#clip0_48_423)">
<path d="M21.8743 35.743C23.4587 35.5893 25.0884 35.3815 26.7363 35.1465C39.4299 33.3119 54.1063 28.9739 70.8018 22.1326C70.8742 22.0965 70.9557 22.0603 71.0281 22.0513C72.2142 21.5723 73.4002 21.0752 74.6135 20.5601C75.4012 20.2167 76.207 19.8733 77.0218 19.5298C80.915 17.8398 84.9168 16.0233 89.0183 14.0803C89.5072 13.8453 89.1994 13.1133 88.6923 13.294C84.4189 14.8304 80.2541 16.2402 76.216 17.5416C75.0662 17.9212 73.9163 18.2827 72.7846 18.6171C71.843 18.9063 70.9104 19.1955 69.9869 19.4756C69.5433 19.6112 69.1087 19.7287 68.665 19.8733C52.4856 24.636 38.2891 27.3653 26.0934 28.0702C26.1477 27.4014 26.2111 26.7327 26.3017 26.082V26.1C27.9676 15.0744 37.429 6.57923 48.8641 6.48886H49.0542C56.4784 6.48886 63.0969 9.94115 67.3522 15.3094C68.4658 16.7192 70.3128 17.3518 72.0331 16.8186C72.0874 16.8005 72.1508 16.7825 72.2051 16.7644C73.2554 16.439 74.2966 16.1137 75.3468 15.7703C70.3581 6.38945 60.4259 0 49.027 0H48.8007C33.7259 0.0994115 21.3401 11.604 19.7104 26.2808C19.638 26.9315 19.5927 27.5822 19.5565 28.2509C19.5384 28.7661 19.5203 29.2993 19.5203 29.8144C19.5565 31.8749 19.7919 33.9084 20.2627 35.8785C20.7969 35.8243 21.3401 35.7972 21.8743 35.743Z" fill="white"/>
<path d="M32.8477 45.7476C45.4327 40.8764 59.756 34.2791 72.2052 28.0252C74.3148 26.9588 76.379 25.9014 78.3709 24.8712L78.4071 24.9073C84.3827 21.7985 89.7064 18.8703 93.8984 16.3941C94.3692 16.1139 93.9799 15.409 93.491 15.653C88.5385 18.1473 83.3687 20.5242 77.9816 22.7835C77.882 22.8378 77.7734 22.8649 77.6738 22.9191C76.4515 23.4342 75.2383 23.9313 73.9798 24.4284C73.3822 24.6724 72.676 24.9435 71.8702 25.2508C63.1331 28.5765 42.9157 35.454 27.9948 38.6894C25.677 39.1864 23.495 39.6112 21.485 39.9094C12.2138 41.3193 7.04401 40.2348 12.1957 34.0261L12.4492 33.7188C12.3134 33.755 12.1776 33.8001 12.0327 33.8544C5.48673 36.1137 3.51297 46.091 15.9621 44.3649C18.298 44.0215 20.634 43.6148 22.9518 43.1448C25.17 42.702 27.3791 42.223 29.5793 41.6717C39.9551 39.1322 50.1498 35.5896 59.9099 31.6131C57.5921 32.6614 44.0565 38.8159 30.7653 43.3888C28.5833 44.1389 26.4194 44.8439 24.328 45.4765C11.8607 49.2451 1.39435 50.5555 3.26852 43.3979C3.34095 43.1358 2.98784 42.9822 2.83393 43.2081C-5.37799 55.3273 5.1789 55.1284 22.1098 49.6066C23.4678 49.1637 24.8712 48.6848 26.3017 48.1877C27.8681 47.6364 29.4797 47.04 31.1094 46.4254C31.6798 46.1995 32.2592 45.9826 32.8477 45.7566V45.7476Z" fill="white"/>
<path d="M78.706 27.3202C78.1537 27.6094 77.6105 27.9167 77.0582 28.2149C75.4285 29.0915 73.8259 29.9501 72.2505 30.7725C57.1395 38.7073 44.5183 44.3105 34.387 47.555C32.8569 48.0339 31.3811 48.4768 29.9777 48.8563C29.1176 49.1004 28.2756 49.2992 27.4517 49.489C27.5875 49.6426 27.7233 49.7782 27.8681 49.9137C29.5341 51.6308 30.8922 53.6462 31.87 55.8242C32.1416 56.4207 32.3861 57.0442 32.6124 57.6588C33.0108 58.8246 33.3186 60.0266 33.5087 61.2376C34.061 64.97 37.248 67.6632 41.0507 67.6632H57.3297C61.0599 67.6632 64.2831 64.9068 64.8716 61.2376C65.5235 56.9177 67.4972 53.0136 70.485 49.9228C75.4466 44.8528 78.3982 37.9572 78.7422 30.8448C78.6607 30.9171 78.5521 30.9623 78.4706 31.0346L78.4887 31.0165C77.1759 31.9383 75.845 32.8601 74.514 33.7729C72.6036 35.0833 71.1641 36.927 70.1953 39.0236C69.1179 41.3734 67.6511 43.5333 65.8494 45.3769C61.8838 49.4528 59.3215 54.6132 58.4433 60.2254C58.3709 60.6863 57.9091 61.1653 57.3115 61.1653H41.0507C40.5527 61.1653 40.0004 60.8942 39.9189 60.2435C39.6473 58.4812 39.1946 56.7279 38.5789 55.047C38.3526 54.4324 38.0991 53.8088 37.8365 53.2124C47.1983 48.9467 58.5972 42.2229 72.0151 33.0861C73.7625 31.9022 75.5371 30.6731 77.357 29.3988C77.8187 29.0734 78.2986 28.73 78.7784 28.4047C79.6204 27.8263 80.4625 27.2208 81.3226 26.6062C82.7984 25.5579 84.2923 24.4824 85.8043 23.3799C84.1202 24.3198 82.4724 25.2506 80.8608 26.1363C80.1546 26.5339 79.4394 26.9045 78.7332 27.3021L78.706 27.3202Z" fill="white"/>
<path d="M56.9584 79.502H41.3494C40.2357 79.502 39.3213 80.4961 39.3213 81.698V83.8038C39.3213 85.0057 40.2357 85.9999 41.3494 85.9999H56.9584C58.072 85.9999 58.9864 85.0057 58.9864 83.8038V81.698C58.9864 80.4961 58.072 79.502 56.9584 79.502Z" fill="white"/>
<path d="M59.5751 70.2295H38.742C37.6283 70.2295 36.7139 71.2236 36.7139 72.4256V74.5313C36.7139 75.7333 37.6283 76.7274 38.742 76.7274H59.5751C60.6887 76.7274 61.6031 75.7333 61.6031 74.5313V72.4256C61.6031 71.2236 60.6887 70.2295 59.5751 70.2295Z" fill="white"/>
<path d="M133.808 42.7384H112.133V38.0299H130.684V32.5894H112.133V27.9983H133.274V22.6392H109.67C107.534 22.6392 105.795 24.3743 105.795 26.5072V48.6759H133.808V42.7384Z" fill="white"/>
<path d="M142.237 30.7455L159.82 48.6757H166.384V22.6479H159.739V39.9636L142.31 22.6479H135.592V48.6757H142.237V30.7455Z" fill="white"/>
<path d="M200.708 46.597V34.5592H188.34V39.8461H194.37V42.2771C193.021 43.5152 189.309 43.931 186.022 43.931C179.92 43.931 176.398 40.7317 176.398 35.6346C176.398 30.5375 180.11 27.3383 185.941 27.3383C190.232 27.3383 194.053 28.3776 198.037 30.8448L201.015 25.3681C199.005 23.8679 192.785 21.7803 185.95 21.7803C177.294 21.7803 169.951 26.8322 169.951 35.6256C169.951 44.419 176.832 49.507 185.56 49.507C193.709 49.507 198.58 47.9255 200.708 46.5789V46.597Z" fill="white"/>
<path d="M232.587 42.7381H210.911V38.0296H229.463V32.5981H210.911V28.0071H232.043V22.6479H204.574V48.6757H232.587V42.7381Z" fill="white"/>
<path d="M264.393 30.7005C264.393 25.7209 261.188 22.6392 254.732 22.6392H234.37V48.6759H240.672V38.7257H254.47C261.115 38.7257 264.402 35.6801 264.402 30.7005H264.393ZM240.672 28.2785H254.696C256.552 28.2785 257.747 29.0467 257.747 30.5198C257.747 32.1375 256.552 32.9508 254.696 32.9508H240.672V28.2875V28.2785Z" fill="white"/>
<path d="M272.397 38.7255H280.129L287.2 48.6757H295.973L288.132 38.6894C293.501 38.111 296.127 35.1828 296.127 30.7093C296.127 25.7297 292.922 22.6479 286.467 22.6479H266.104V48.6847H272.406V38.7345L272.397 38.7255ZM272.397 28.2783H286.421C288.277 28.2783 289.472 29.0464 289.472 30.5195C289.472 32.1372 288.277 32.9506 286.421 32.9506H272.397V28.2873V28.2783Z" fill="white"/>
<path d="M305.869 22.6479H299.531V48.6847H305.869V22.6479Z" fill="white"/>
<path d="M325.344 22.6479H310.586V48.6847H326.241C338.409 48.6847 342.465 41.4729 342.465 35.6437C342.465 25.2688 334.779 22.6479 325.344 22.6479ZM325.417 42.6568H316.915V27.8806H325.335C332.406 27.8806 335.883 30.6189 335.883 35.3997C335.883 40.1805 332.443 42.6477 325.408 42.6477L325.417 42.6568Z" fill="white"/>
<path d="M352.316 42.7381V38.0296H370.867V32.5981H352.316V28.0071H373.457V22.6479H345.987V48.6757H374V42.7381H352.316Z" fill="white"/>
<path d="M116.198 54.1157C110.177 54.1157 105.632 56.9173 105.632 62.5115C105.632 68.1056 110.177 70.8801 116.253 70.8801C121.006 70.8801 125.135 68.5846 125.868 65.6655H123.242C122.59 67.6718 119.793 69.0817 116.189 69.0817C111.789 69.0817 108.339 67.1115 108.014 63.1351H125.868V62.4573C125.868 58.7158 122.445 54.1248 116.189 54.1248L116.198 54.1157ZM123.287 61.5354H108.086C108.502 57.6493 111.861 55.9413 116.171 55.9413C120.481 55.9413 123.287 59.005 123.287 61.4179V61.5354Z" fill="white"/>
<path d="M138.245 54.1157C135.203 54.1157 132.876 55.0556 131.137 56.357V54.4682H128.72V70.5186H131.282V58.3543C133.111 56.9444 135.148 56.113 137.837 56.113C141.939 56.113 145.714 57.4686 145.714 63.7406V70.5186H148.276V63.6863C148.276 55.6702 143.08 54.1157 138.245 54.1157Z" fill="white"/>
<path d="M168.983 56.3572C168.005 55.5619 165.85 54.1792 161.432 54.1792C156.271 54.1792 150.956 56.3572 150.956 61.9514C150.956 67.5455 156.325 69.7235 160.635 69.7235C164.592 69.7235 167.806 68.6029 169.073 67.3377C169.073 71.287 165.506 73.2301 160.87 73.2301C157.149 73.2301 154.469 72.6155 152.369 71.7027L151.572 73.5554C153.908 74.5314 156.47 75.0014 161.015 75.0014C167.688 75.0014 171.436 72.6155 171.436 66.4339V54.4774H168.983V56.3663V56.3572ZM161.667 67.8076C157.747 67.8076 153.401 66.217 153.401 61.8881C153.401 57.5592 157.647 55.9415 162.02 55.9415C165.153 55.9415 168.186 57.4417 168.983 59.0955L169.073 65.0783C168.014 66.6689 165.18 67.8167 161.667 67.8167V67.8076Z" fill="white"/>
<path d="M184.827 54.1157C178.806 54.1157 174.261 56.9173 174.261 62.5115C174.261 68.1056 178.806 70.8801 184.882 70.8801C189.635 70.8801 193.763 68.5846 194.497 65.6655H191.871C191.219 67.6718 188.422 69.0817 184.818 69.0817C180.418 69.0817 176.968 67.1115 176.642 63.1351H194.497V62.4573C194.497 58.7158 191.074 54.1248 184.818 54.1248L184.827 54.1157ZM191.907 61.5354H176.706C177.122 57.6493 180.481 55.9413 184.791 55.9413C189.101 55.9413 191.898 59.005 191.898 61.4179V61.5354H191.907Z" fill="white"/>
<path d="M206.864 54.1157C203.822 54.1157 201.495 55.0556 199.757 56.357V54.4682H197.34V70.5186H199.911V58.3543C201.74 56.9444 203.777 56.113 206.466 56.113C210.567 56.113 214.343 57.4686 214.343 63.7406V70.5186H216.914V63.6863C216.914 55.6702 211.717 54.1157 206.882 54.1157H206.864Z" fill="white"/>
<path d="M229.726 54.1162C226.684 54.1162 224.447 55.0561 222.7 56.3575V49.9951H220.219V70.5281H222.781V58.3638C224.61 56.981 226.647 56.1225 229.3 56.1225C233.402 56.1225 237.15 57.4781 237.15 63.7501V70.5281H239.721V63.6958C239.721 55.6797 234.56 54.1252 229.717 54.1252L229.726 54.1162Z" fill="white"/>
<path d="M263.596 68.8106C262.709 68.8106 262.148 68.196 262.148 67.4549V61.6529C262.148 56.5558 258.87 54.1157 251.645 54.1157C248.277 54.1157 244.828 54.676 243.026 55.8871L243.732 57.5951C245.416 56.6552 248.603 56.0678 251.464 56.0678C257.485 56.0678 259.758 58.1012 259.812 61.3095C258.544 60.695 255.149 59.746 252.107 59.746C247.39 59.746 242.401 60.7763 242.401 65.2227C242.401 68.9371 245.144 70.8801 250.667 70.8801C254.678 70.8801 258.427 69.8227 259.966 68.9371C260.319 70.0577 261.378 70.8801 262.854 70.8801C263.587 70.8801 264.42 70.5819 264.918 70.0848L264.828 68.3496C264.475 68.6479 264.004 68.8196 263.587 68.8196L263.596 68.8106ZM259.758 67.4549C258.463 68.1327 254.416 69.0455 251.111 69.0455C246.982 69.0455 244.764 67.8345 244.764 65.2498C244.764 62.5115 247.833 61.5083 252.234 61.5083C255.212 61.5083 258.753 62.3036 259.758 63.0447V67.464V67.4549Z" fill="white"/>
<path d="M269.201 57.1797V54.4684H266.811V70.5189H269.373V60.0626C270.26 56.9989 274.036 56.5018 278.11 56.4657V54.1069C273.682 54.1069 270.704 54.6944 269.201 57.1706V57.1797Z" fill="white"/>
<path d="M282.619 54.4683H280.083V70.5187H282.619V54.4683Z" fill="white"/>
<path d="M281.324 50.1938C280.5 50.1938 279.848 50.7542 279.848 51.432C279.848 52.1098 280.5 52.6701 281.324 52.6701C282.148 52.6701 282.854 52.1369 282.854 51.432C282.854 50.7271 282.175 50.1938 281.324 50.1938Z" fill="white"/>
<path d="M307.11 68.8106C306.222 68.8106 305.661 68.196 305.661 67.4549V61.6529C305.661 56.5558 302.383 54.1157 295.158 54.1157C291.79 54.1157 288.341 54.676 286.539 55.8871L287.245 57.5951C288.929 56.6552 292.116 56.0678 294.977 56.0678C300.998 56.0678 303.271 58.1012 303.325 61.3095C302.057 60.695 298.662 59.746 295.62 59.746C290.903 59.746 285.914 60.7763 285.914 65.2227C285.914 68.9371 288.658 70.8801 294.181 70.8801C298.191 70.8801 301.94 69.8227 303.479 68.9371C303.832 70.0577 304.891 70.8801 306.367 70.8801C307.101 70.8801 307.933 70.5819 308.431 70.0848L308.341 68.3496C307.988 68.6479 307.517 68.8196 307.1 68.8196L307.11 68.8106ZM303.28 67.4549C301.985 68.1327 297.938 69.0455 294.633 69.0455C290.505 69.0455 288.286 67.8345 288.286 65.2498C288.286 62.5115 291.356 61.5083 295.756 61.5083C298.735 61.5083 302.275 62.3036 303.28 63.0447V67.464V67.4549Z" fill="white"/>
</g>
<defs>
<clipPath id="clip0_48_423">
<rect width="374" height="86" fill="white"/>
</clipPath>
</defs>
</svg>
